<svg width="30" height="30" viewBox="0 0 30 30" fill="none" xmlns="http://www.w3.org/2000/svg">
<mask id="mask0_3221_2580" style="mask-type:alpha" maskUnits="userSpaceOnUse" x="0" y="0" width="30" height="30">
<rect width="30" height="30" fill="#D9D9D9"/>
</mask>
<g mask="url(#mask0_3221_2580)">
<path d="M13.2259 20.3172L21.6297 11.9134L20.3125 10.5963L13.2259 17.6828L9.66344 14.1203L8.34625 15.4375L13.2259 20.3172ZM15.0022 26.875C13.3597 26.875 11.8158 26.5633 10.3706 25.94C8.92542 25.3167 7.66833 24.4707 6.59937 23.4022C5.53042 22.3336 4.68406 21.0771 4.06031 19.6325C3.43677 18.1879 3.125 16.6445 3.125 15.0022C3.125 13.3597 3.43667 11.8158 4.06 10.3706C4.68333 8.92542 5.52927 7.66833 6.59781 6.59937C7.66635 5.53042 8.92292 4.68406 10.3675 4.06031C11.8121 3.43677 13.3555 3.125 14.9978 3.125C16.6403 3.125 18.1842 3.43667 19.6294 4.06C21.0746 4.68333 22.3317 5.52927 23.4006 6.59781C24.4696 7.66635 25.3159 8.92292 25.9397 10.3675C26.5632 11.8121 26.875 13.3555 26.875 14.9978C26.875 16.6403 26.5633 18.1842 25.94 19.6294C25.3167 21.0746 24.4707 22.3317 23.4022 23.4006C22.3336 24.4696 21.0771 25.3159 19.6325 25.9397C18.1879 26.5632 16.6445 26.875 15.0022 26.875Z" fill="#82CA80"/>
</g>
</svg>
