<svg width="17" height="18" viewBox="0 0 17 18" fill="none" xmlns="http://www.w3.org/2000/svg">
<path d="M5.3125 9.70833H11.6875V9H5.3125V9.70833ZM11.6875 11.4792H5.3125V10.7708H11.6875V11.4792ZM5.3125 13.25H11.6875V12.5417H5.3125V13.25Z" fill="black"/>
<path fill-rule="evenodd" clip-rule="evenodd" d="M13.8125 7.58333C13.8125 7.39547 13.7379 7.2153 13.605 7.08247C13.4722 6.94963 13.292 6.875 13.1042 6.875H12.3958V6.52083C12.3958 4.36927 10.6516 2.625 8.5 2.625C6.34844 2.625 4.60417 4.36927 4.60417 6.52083V6.875H3.89583C3.70797 6.875 3.5278 6.94963 3.39497 7.08247C3.26213 7.2153 3.1875 7.39547 3.1875 7.58333V14.6667C3.1875 14.8545 3.26213 15.0347 3.39497 15.1675C3.5278 15.3004 3.70797 15.375 3.89583 15.375H13.1042C13.292 15.375 13.4722 15.3004 13.605 15.1675C13.7379 15.0347 13.8125 14.8545 13.8125 14.6667V7.58333ZM5.3125 6.52083C5.3125 5.67546 5.64833 4.8647 6.2461 4.26693C6.84387 3.66916 7.65462 3.33333 8.5 3.33333C9.34538 3.33333 10.1561 3.66916 10.7539 4.26693C11.3517 4.8647 11.6875 5.67546 11.6875 6.52083V6.875H10.9792V6.52083C10.9792 6.19526 10.915 5.87288 10.7905 5.5721C10.6659 5.27131 10.4832 4.99801 10.253 4.7678C10.0228 4.53759 9.74952 4.35497 9.44874 4.23038C9.14795 4.10579 8.82557 4.04167 8.5 4.04167C8.17443 4.04167 7.85205 4.10579 7.55126 4.23038C7.25048 4.35497 6.97718 4.53759 6.74696 4.7678C6.51675 4.99801 6.33414 5.27131 6.20955 5.5721C6.08496 5.87288 6.02083 6.19526 6.02083 6.52083V7.58333H13.1042V14.6667H3.89583V7.58333H5.3125V6.52083ZM8.5 4.75C8.96965 4.75 9.42007 4.93657 9.75217 5.26867C10.0843 5.60076 10.2708 6.05118 10.2708 6.52083V6.875H6.72917V6.52083C6.72917 6.05118 6.91574 5.60076 7.24783 5.26867C7.57993 4.93657 8.03035 4.75 8.5 4.75Z" fill="black"/>
</svg>
