<svg width="46" height="46" viewBox="0 0 46 46" fill="none" xmlns="http://www.w3.org/2000/svg">
<g id="mage:double-arrow-left">
<path id="Vector" d="M36.4154 10.2736L25.3696 21.3193C25.0599 21.6335 24.6908 21.8831 24.2837 22.0534C23.8767 22.2237 23.4399 22.3114 22.9987 22.3114C22.5575 22.3114 22.1207 22.2237 21.7137 22.0534C21.3066 21.8831 20.9375 21.6335 20.6278 21.3193L9.58203 10.2736M36.4154 23.6903L25.3696 34.736C25.0595 35.0495 24.6902 35.2984 24.2833 35.4683C23.8763 35.6381 23.4397 35.7256 22.9987 35.7256C22.5577 35.7256 22.1211 35.6381 21.7141 35.4683C21.3072 35.2984 20.9379 35.0495 20.6278 34.736L9.58203 23.6903" stroke="#82CA80" stroke-width="3" stroke-linecap="round" stroke-linejoin="round"/>
</g>
</svg>
