<svg width="15" height="15" viewBox="0 0 15 15" fill="none" xmlns="http://www.w3.org/2000/svg">
<path d="M5.43895 3.21301C6.19198 1.86267 6.5682 1.1875 7.13104 1.1875C7.69388 1.1875 8.07009 1.86267 8.82312 3.21301L9.01806 3.56248C9.23203 3.94642 9.33901 4.1384 9.50542 4.26499C9.67184 4.39159 9.87986 4.43854 10.2959 4.53244L10.6739 4.61803C12.136 4.94908 12.8664 5.1143 13.0406 5.67358C13.2141 6.23226 12.716 6.8153 11.7193 7.9808L11.4614 8.28213C11.1785 8.61318 11.0364 8.779 10.9728 8.98345C10.9093 9.1885 10.9306 9.40959 10.9734 9.85119L11.0127 10.2536C11.163 11.8089 11.2385 12.5863 10.7833 12.9317C10.328 13.277 9.64331 12.962 8.27514 12.332L7.92032 12.1691C7.53162 11.9896 7.33727 11.9005 7.13104 11.9005C6.9248 11.9005 6.73045 11.9896 6.34175 12.1691L5.98753 12.332C4.61876 12.962 3.93408 13.277 3.47941 12.9322C3.02355 12.5863 3.09904 11.8089 3.2494 10.2536L3.28863 9.85178C3.33142 9.40959 3.35282 9.1885 3.28863 8.98405C3.22563 8.779 3.08358 8.61318 2.80068 8.28273L2.54273 7.9808C1.54603 6.8159 1.04797 6.23285 1.22152 5.67358C1.39506 5.1143 2.1267 4.94848 3.58877 4.61803L3.96677 4.53244C4.38222 4.43854 4.58964 4.39159 4.75665 4.26499C4.92366 4.1384 5.03005 3.94642 5.24401 3.56248L5.43895 3.21301Z" fill="#82CA80"/>
</svg>
